<?xml version="1.0" encoding="UTF-8" standalone="no"?>
<!-- Created with Inkscape (http://www.inkscape.org/) -->

<svg
   width="3400"
   height="1023.9999"
   viewBox="0 0 899.58339 270.93333"
   version="1.1"
   id="svg1"
   xml:space="preserve"
   xmlns="http://www.w3.org/2000/svg"
   xmlns:svg="http://www.w3.org/2000/svg"><defs
     id="defs1" /><path
     d="M 22.445932,19.050002 V 251.88335 H 117.69594 V 19.050002 Z"
     style="fill:#18eab2;stroke-width:4.20951;stroke-linecap:round;stroke-linejoin:round"
     id="path1" /><path
     d="m 22.445932,202.89771 c 3.97856,1.85419 8.31811,2.81585 13.04623,2.81585 8.58574,0 15.93575,-3.05694 22.04982,-9.17102 6.11408,-6.11408 9.17102,-13.46409 9.17102,-22.04982 V 96.440633 h 31.22083 V 65.219797 h -46.83125 v 82.344853 c -2.34156,-1.43095 -4.78069,-2.50397 -7.31738,-3.21944 -2.5367,-0.71548 -5.30104,-1.07332 -8.29304,-1.07332 -4.72815,0 -9.06765,0.96163 -13.04623,2.81585 z"
     style="fill:#ffffff;fill-opacity:1;paint-order:stroke fill markers"
     id="path3" /><path
     style="font-weight:800;font-size:180.622px;font-family:'Inter 28pt';-inkscape-font-specification:'Inter 28pt, Ultra-Bold';fill:#ffffff;stroke-width:12.7;stroke-linecap:round;stroke-linejoin:round;paint-order:stroke fill markers"
     d="M 153.59116,201.17143 V 69.761876 h 93.57419 v 26.634689 h -62.00062 v 29.192325 h 57.6791 v 25.75274 h -57.6791 v 49.8298 z m 105.03945,0 V 106.8035 h 29.5451 v 16.75692 h 0.35278 q 2.64583,-9.08402 8.20208,-13.14096 5.55624,-4.14513 14.64025,-4.14513 2.38125,0 4.40972,0.0882 2.11667,0.0882 3.96875,0.26459 v 25.39997 q -1.76389,-0.17639 -5.29166,-0.35278 -3.52778,-0.17639 -6.70277,-0.17639 -5.46805,0 -9.70138,2.46944 -4.23333,2.46944 -6.61457,7.05555 -2.29306,4.5861 -2.29306,11.11248 v 49.03605 z m 115.26999,2.02847 q -14.55206,0 -25.48816,-6.1736 -10.8479,-6.1736 -16.84512,-17.28609 -5.99721,-11.11249 -5.99721,-25.66455 0,-14.46387 5.99721,-25.48816 5.99722,-11.11249 16.66873,-17.37429 10.75971,-6.34999 24.78261,-6.34999 10.49512,0 19.13817,3.52777 8.64304,3.43958 14.90484,9.87777 6.34999,6.34999 9.78957,15.25762 3.52777,8.90763 3.52777,19.84372 v 8.11388 h -84.75475 v -18.07984 h 70.37908 l -13.93471,3.79236 q 0,-6.1736 -2.20485,-10.58332 -2.20486,-4.49791 -6.35,-6.87916 -4.05694,-2.46944 -9.87776,-2.46944 -5.73263,0 -9.87777,2.46944 -4.05694,2.38125 -6.26179,6.79097 -2.20486,4.40971 -2.20486,10.58332 v 13.22915 q 0,6.52638 2.29305,11.28887 2.38125,4.6743 6.79096,7.14374 4.40972,2.46944 10.49513,2.46944 4.40972,0 7.84929,-1.23472 3.52778,-1.23472 5.90902,-3.43958 2.38125,-2.29305 3.52778,-5.37985 l 27.34024,0.97014 q -1.85208,9.17221 -8.20207,16.22775 -6.34999,6.96736 -15.96318,10.9361 -9.61318,3.88055 -21.43122,3.88055 z m 104.42209,0 q -14.55207,0 -25.48816,-6.1736 -10.84791,-6.1736 -16.84512,-17.28609 -5.99721,-11.11249 -5.99721,-25.66455 0,-14.46387 5.99721,-25.48816 5.99721,-11.11249 16.66873,-17.37429 10.75971,-6.34999 24.78261,-6.34999 10.49512,0 19.13817,3.52777 8.64304,3.43958 14.90484,9.87777 6.34999,6.34999 9.78957,15.25762 3.52777,8.90763 3.52777,19.84372 v 8.11388 h -84.75475 v -18.07984 h 70.37908 l -13.93471,3.79236 q 0,-6.1736 -2.20486,-10.58332 -2.20485,-4.49791 -6.34999,-6.87916 -4.05694,-2.46944 -9.87776,-2.46944 -5.73263,0 -9.87777,2.46944 -4.05694,2.38125 -6.2618,6.79097 -2.20485,4.40971 -2.20485,10.58332 v 13.22915 q 0,6.52638 2.29305,11.28887 2.38125,4.6743 6.79096,7.14374 4.40972,2.46944 10.49513,2.46944 4.40971,0 7.84929,-1.23472 3.52778,-1.23472 5.90902,-3.43958 2.38125,-2.29305 3.52778,-5.37985 l 27.34024,0.97014 q -1.85208,9.17221 -8.20207,16.22775 -6.34999,6.96736 -15.96318,10.9361 -9.61318,3.88055 -21.43122,3.88055 z m 59.97214,-2.02847 V 69.761876 h 31.57358 V 174.53674 h 57.5027 v 26.63469 z m 102.12903,0 V 69.761876 h 54.06313 q 15.08123,0 26.10552,5.379855 11.11249,5.379854 17.02151,15.345814 5.99721,9.877765 5.99721,23.547885 0,13.31735 -6.2618,23.01872 -6.1736,9.70138 -17.55067,14.90484 -11.37707,5.20347 -26.89927,5.20347 h -33.33746 v -24.8708 h 31.74996 q 6.61458,0 11.28888,-2.20486 4.6743,-2.20486 7.23193,-6.2618 2.55764,-4.14513 2.55764,-9.78957 0,-5.73263 -2.55764,-9.78957 -2.55763,-4.14513 -7.23193,-6.349991 -4.6743,-2.293053 -11.28888,-2.293053 H 671.99743 V 201.17143 Z m 73.28949,0 -29.89788,-59.61937 h 32.89649 l 30.60343,59.61937 z m 104.33392,2.02847 q -17.90345,0 -32.19093,-7.93749 -14.19929,-8.02568 -22.48956,-23.19511 -8.20207,-15.16942 -8.20207,-36.51245 0,-21.51942 8.20207,-36.688844 8.29027,-15.169425 22.48956,-23.106915 14.28748,-8.025684 32.19093,-8.025684 11.99443,0 22.13678,3.527773 10.14234,3.439579 17.90344,9.96596 7.76111,6.438186 12.69999,15.610397 4.93888,9.084013 6.34999,20.461083 h -31.92635 q -0.88194,-5.20346 -3.17499,-9.2604 -2.29306,-4.05694 -5.73264,-6.87916 -3.43957,-2.82222 -7.93749,-4.321523 -4.40971,-1.499304 -9.70137,-1.499304 -10.05416,0 -17.1097,4.850687 -7.05555,4.7625 -10.75971,13.75832 -3.70416,8.99582 -3.70416,21.60761 0,12.61179 3.70416,21.60761 3.70416,8.90763 10.75971,13.67012 7.05554,4.7625 17.0215,4.7625 5.37986,0 9.78957,-1.41111 4.40972,-1.49931 7.8493,-4.32153 3.43958,-2.91041 5.73263,-6.87915 2.29305,-4.05694 3.35139,-9.26041 h 31.83815 q -1.32291,10.75971 -6.08541,19.84373 -4.76249,8.99582 -12.52359,15.69859 -7.67291,6.61457 -17.90345,10.31873 -10.23055,3.61597 -22.57775,3.61597 z"
     id="use1"
     aria-label="FreeLRC" /></svg>
