<?xml version="1.0" encoding="UTF-8" standalone="no"?>
<!-- Created with Inkscape (http://www.inkscape.org/) -->

<svg
   width="1920"
   height="1080"
   viewBox="0 0 508.00003 285.75003"
   version="1.1"
   id="svg1"
   xml:space="preserve"
   sodipodi:docname="thumbnail.svg"
   inkscape:version="1.4 (e7c3feb100, 2024-10-09)"
   inkscape:export-filename="thumbnail.png"
   inkscape:export-xdpi="96"
   inkscape:export-ydpi="96"
   xmlns:inkscape="http://www.inkscape.org/namespaces/inkscape"
   xmlns:sodipodi="http://sodipodi.sourceforge.net/DTD/sodipodi-0.dtd"
   xmlns:xlink="http://www.w3.org/1999/xlink"
   xmlns="http://www.w3.org/2000/svg"
   xmlns:svg="http://www.w3.org/2000/svg"><sodipodi:namedview
     id="namedview1"
     pagecolor="#ffffff"
     bordercolor="#000000"
     borderopacity="0.25"
     inkscape:showpageshadow="2"
     inkscape:pageopacity="0.0"
     inkscape:pagecheckerboard="0"
     inkscape:deskcolor="#d1d1d1"
     inkscape:zoom="0.34742266"
     inkscape:cx="922.50748"
     inkscape:cy="997.34428"
     inkscape:window-width="1920"
     inkscape:window-height="1018"
     inkscape:window-x="0"
     inkscape:window-y="0"
     inkscape:window-maximized="1"
     inkscape:current-layer="svg1" /><defs
     id="defs1"><linearGradient
       id="linearGradient9"
       inkscape:collect="always"><stop
         style="stop-color:#2d3339;stop-opacity:1;"
         offset="0"
         id="stop9" /><stop
         style="stop-color:#252c31;stop-opacity:1;"
         offset="1"
         id="stop10" /></linearGradient><linearGradient
       id="linearGradient7"
       inkscape:collect="always"><stop
         style="stop-color:#252c31;stop-opacity:1;"
         offset="0"
         id="stop7" /><stop
         style="stop-color:#21252a;stop-opacity:1;"
         offset="1"
         id="stop8" /></linearGradient><linearGradient
       inkscape:collect="always"
       xlink:href="#linearGradient7"
       id="linearGradient8"
       x1="264.26147"
       y1="49.765873"
       x2="213.27617"
       y2="304.78903"
       gradientUnits="userSpaceOnUse" /><linearGradient
       inkscape:collect="always"
       xlink:href="#linearGradient9"
       id="linearGradient10"
       x1="295.58963"
       y1="183.61351"
       x2="323.11676"
       y2="319.00824"
       gradientUnits="userSpaceOnUse" /></defs><rect
     style="fill:url(#linearGradient8);stroke-width:12.7;stroke-linecap:round;stroke-linejoin:round;paint-order:stroke fill markers;fill-opacity:1"
     id="rect1"
     width="508.00006"
     height="285.75003"
     x="0"
     y="0" /><circle
     style="fill:none;fill-opacity:1;stroke:#545d66;stroke-width:12.7;stroke-linecap:round;stroke-linejoin:round;stroke-opacity:1;paint-order:stroke fill markers"
     id="path3"
     cx="42.121716"
     cy="222.35988"
     r="97.775169" /><g
     id="g1"
     transform="matrix(0.3637844,0,0,0.3637844,90.372816,93.594348)"><path
       id="path1"
       style="fill:#24ffc5;fill-opacity:1;stroke-width:4.20951;stroke-linecap:round;stroke-linejoin:round"
       d="M 22.445612 19.050497 L 22.445612 146.08793 C 26.424192 144.23371 30.763552 143.27245 35.491702 143.27245 C 38.483702 143.27245 41.248019 143.62947 43.784719 144.34495 C 46.321409 145.06042 48.761697 146.13433 51.103257 147.56528 L 51.103257 65.220359 L 97.933662 65.220359 L 97.933662 96.440629 L 66.713392 96.440629 L 66.713392 174.49272 C 66.713392 183.07845 63.656571 190.42801 57.542491 196.54209 C 51.428421 202.65617 44.077442 205.71299 35.491702 205.71299 C 30.763582 205.71299 26.424172 204.75171 22.445612 202.89752 L 22.445612 251.88286 L 117.69599 251.88286 L 117.69599 19.050497 L 22.445612 19.050497 z " /></g><path
     style="fill:url(#linearGradient10);fill-opacity:1;stroke-width:12.7;stroke-linecap:round;stroke-linejoin:round;paint-order:stroke fill markers"
     d="M 45.330301,304.53027 C 84.484192,234.19828 167.86749,192.1441 293.30495,213.17119 c 125.43749,21.02709 220.42191,-52.93026 259.57581,-108.76081 39.15389,-55.830551 86.28359,114.56139 86.28359,114.56139 l -42.0542,176.19251 -506.100304,-6.52563 z"
     id="path2" /><path
     style="font-weight:800;font-size:180.622px;font-family:'Inter 28pt';-inkscape-font-specification:'Inter 28pt, Ultra-Bold';fill:#ffffff;stroke-width:4.62006;stroke-linecap:round;stroke-linejoin:round;paint-order:stroke fill markers"
     d="m 146.24689,159.36903 v -47.80475 h 34.04083 v 9.68929 h -22.55486 v 10.61971 h 20.98276 v 9.36845 h -20.98276 v 18.1273 z m 38.21171,0 v -34.32958 h 10.74805 v 6.09591 h 0.12833 q 0.96251,-3.30463 2.98379,-4.78048 2.02127,-1.50793 5.3259,-1.50793 0.86626,0 1.60418,0.0321 0.77001,0.0321 1.44377,0.0962 v 9.24012 q -0.64167,-0.0642 -1.92502,-0.12834 -1.28335,-0.0642 -2.43836,-0.0642 -1.9892,0 -3.52921,0.89834 -1.54002,0.89834 -2.40628,2.5667 -0.83418,1.66835 -0.83418,4.04254 v 17.83856 z m 41.93343,0.73793 q -5.29382,0 -9.2722,-2.24586 -3.9463,-2.24586 -6.12799,-6.28841 -2.18169,-4.04255 -2.18169,-9.33637 0,-5.26173 2.18169,-9.27219 2.18169,-4.04255 6.06382,-6.3205 3.91422,-2.31002 9.01553,-2.31002 3.81796,0 6.96217,1.28334 3.1442,1.25127 5.42215,3.59338 2.31002,2.31003 3.56129,5.55049 1.28335,3.24045 1.28335,7.21883 v 2.95171 h -30.83246 v -6.57717 h 25.60281 l -5.06923,1.3796 q 0,-2.24586 -0.80209,-3.85004 -0.80209,-1.63627 -2.31003,-2.50253 -1.47585,-0.89835 -3.59337,-0.89835 -2.08545,0 -3.59338,0.89835 -1.47586,0.86626 -2.27795,2.47044 -0.80209,1.60419 -0.80209,3.85005 v 4.81256 q 0,2.3742 0.83418,4.10671 0.86626,1.70044 2.47044,2.59879 1.60419,0.89834 3.81797,0.89834 1.60418,0 2.85545,-0.44917 1.28335,-0.44917 2.14961,-1.25127 0.86626,-0.83417 1.28335,-1.9571 l 9.94595,0.35292 q -0.67376,3.33671 -2.98379,5.9034 -2.31002,2.53462 -5.80715,3.97838 -3.49713,1.41169 -7.79634,1.41169 z m 37.98712,0 q -5.29381,0 -9.27219,-2.24586 -3.9463,-2.24586 -6.12799,-6.28841 -2.1817,-4.04255 -2.1817,-9.33637 0,-5.26173 2.1817,-9.27219 2.18169,-4.04255 6.06382,-6.3205 3.91422,-2.31002 9.01553,-2.31002 3.81796,0 6.96217,1.28334 3.1442,1.25127 5.42214,3.59338 2.31003,2.31003 3.5613,5.55049 1.28334,3.24045 1.28334,7.21883 v 2.95171 h -30.83245 v -6.57717 h 25.60281 l -5.06923,1.3796 q 0,-2.24586 -0.80209,-3.85004 -0.80209,-1.63627 -2.31003,-2.50253 -1.47585,-0.89835 -3.59338,-0.89835 -2.08544,0 -3.59338,0.89835 -1.47585,0.86626 -2.27794,2.47044 -0.80209,1.60419 -0.80209,3.85005 v 4.81256 q 0,2.3742 0.83418,4.10671 0.86626,1.70044 2.47044,2.59879 1.60419,0.89834 3.81797,0.89834 1.60418,0 2.85544,-0.44917 1.28336,-0.44917 2.14961,-1.25127 0.86627,-0.83417 1.28336,-1.9571 l 9.94595,0.35292 q -0.67376,3.33671 -2.98379,5.9034 -2.31002,2.53462 -5.80715,3.97838 -3.49713,1.41169 -7.79635,1.41169 z m 21.81693,-0.73793 v -47.80475 h 11.48598 v 38.11547 h 20.91859 v 9.68928 z m 37.15295,0 v -47.80475 h 19.66733 q 5.48631,0 9.49678,1.95711 4.04255,1.95711 6.19216,5.58257 2.18169,3.59338 2.18169,8.56635 0,4.84465 -2.27795,8.37385 -2.24586,3.52922 -6.38466,5.42215 -4.1388,1.89294 -9.78553,1.89294 H 330.3112 v -9.0476 h 11.55014 q 2.40628,0 4.10672,-0.8021 1.70044,-0.80209 2.63086,-2.27794 0.93043,-1.50794 0.93043,-3.5613 0,-2.08544 -0.93043,-3.56129 -0.93042,-1.50793 -2.63086,-2.31003 -1.70044,-0.83418 -4.10672,-0.83418 H 334.835 v 38.40422 z m 26.66158,0 -10.87639,-21.6886 h 11.96723 l 11.13305,21.6886 z m 37.95505,0.73793 q -6.513,0 -11.71056,-2.88754 -5.16548,-2.91961 -8.18135,-8.43802 -2.98379,-5.5184 -2.98379,-13.28266 0,-7.82843 2.98379,-13.34683 3.01587,-5.5184 8.18135,-8.40593 5.19756,-2.91962 11.71056,-2.91962 4.36339,0 8.05301,1.28335 3.68963,1.25126 6.513,3.62546 2.82337,2.34211 4.62006,5.67882 1.79668,3.30462 2.31002,7.44342 h -11.61431 q -0.32083,-1.89294 -1.15501,-3.36879 -0.83418,-1.47585 -2.08544,-2.50253 -1.25126,-1.02668 -2.88754,-1.5721 -1.60418,-0.54543 -3.5292,-0.54543 -3.65755,0 -6.22425,1.76461 -2.5667,1.73252 -3.91421,5.00506 -1.34752,3.27254 -1.34752,7.86051 0,4.58798 1.34752,7.86051 1.34751,3.24046 3.91421,4.97298 2.5667,1.73252 6.19216,1.73252 1.95711,0 3.56129,-0.51334 1.60419,-0.54542 2.85546,-1.5721 1.25126,-1.05876 2.08544,-2.50253 0.83417,-1.47585 1.21918,-3.36879 h 11.58222 q -0.48125,3.91421 -2.21377,7.21884 -1.73252,3.27254 -4.55589,5.7109 -2.79129,2.40628 -6.513,3.75379 -3.72171,1.31544 -8.21343,1.31544 z"
     id="use1"
     aria-label="FreeLRC" /><text
     xml:space="preserve"
     style="font-weight:800;font-size:16.9333px;font-family:'Inter 28pt';-inkscape-font-specification:'Inter 28pt, Ultra-Bold';text-align:start;writing-mode:lr-tb;direction:ltr;text-anchor:start;fill:#ffffff;fill-opacity:1;stroke:none;stroke-width:12.7;stroke-linecap:round;stroke-linejoin:round;stroke-opacity:1;paint-order:stroke fill markers"
     x="145.18028"
     y="180.0251"
     id="text3"><tspan
       sodipodi:role="line"
       id="tspan3"
       style="font-style:normal;font-variant:normal;font-weight:600;font-stretch:normal;font-size:16.9333px;font-family:'Inter 28pt';-inkscape-font-specification:'Inter 28pt Semi-Bold';fill:#ffffff;fill-opacity:1;stroke:none;stroke-width:12.7;stroke-opacity:1"
       x="145.18028"
       y="180.0251">No-bulls**t Lyric Timing Tool</tspan></text></svg>
